#!OML:ASF F:\VICON\USERDATA\INSTALL\rory3\rory3.ASF
:FULLY-SPECIFIED
:DEGREES
1849
root -2.11378 17.1575 10.8135 -719.268 -144.687 720.458
lowerback 4.91046 -0.524116 -4.69631
upperback -1.13723 -1.01971 -0.270363
thorax -3.8585 -0.405794 2.4387
lowerneck -19.8734 -5.42923 -14.4598
upperneck -17.5379 -6.21856 11.8249
head -1.41798 -3.39327 5.82965
rclavicle 2.70161e-014 -3.97569e-016
rhumerus 45.0561 -18.7426 -28.0181
rradius 70.9534
rwrist 13.8611
rhand -43.3355 -1.44052
rfingers 7.12502
rthumb -16.1814 -30.7851
lclavicle 2.70161e-014 -3.97569e-016
lhumerus 16.4578 -10.608 55.3438
lradius 83.7423
lwrist 1.21202
lhand -24.674 25.6801
lfingers 7.12502
lthumb 1.82643 55.6521
rfemur -7.71912 -8.21172 15.2483
rtibia 50.1063
rfoot -22.009 -4.01871
rtoes -11.5885
lfemur -19.4135 -5.5885 -11.0528
ltibia 35.1129
lfoot -17.9736 -6.78031
ltoes -25.0463
1850
root -2.16571 17.1582 10.8464 -719.277 -144.748 720.104
lowerback 5.24404 -0.508642 -4.88645
upperback -1.15684 -1.03732 -0.361682
thorax -4.06532 -0.406696 2.45763
lowerneck -20.1739 -5.5501 -14.5637
upperneck -17.2588 -6.30474 11.9616
head -1.27257 -3.42154 5.86734
rclavicle 5.36656e-014 -4.77083e-015
rhumerus 46.3477 -19.8275 -27.7922
rradius 69.6155
rwrist 13.0559
rhand -43.2358 -1.49075
rfingers 7.12502
rthumb -16.0854 -30.8431
lclavicle 5.36656e-014 -4.77083e-015
lhumerus 18.8652 -10.2305 53.6938
lradius 83.7107
lwrist 1.78791
lhand -25.2849 25.8504
lfingers 7.12502
lthumb 1.23638 55.8265
rfemur -8.54688 -7.96247 14.6023
rtibia 51.7578
rfoot -20.6075 -4.19194
rtoes -9.27434
lfemur -19.0251 -5.24862 -11.5686
ltibia 34.8377
lfoot -18.0132 -7.41474
ltoes -24.761
1851
root -2.22225 17.1621 10.8765 -719.461 -144.955 719.998
lowerback 5.47231 -0.439045 -4.7406
upperback -1.08716 -0.951762 -0.474161
thorax -4.13229 -0.369366 2.25484
lowerneck -20.0646 -5.55685 -14.6362
upperneck -17.7206 -6.34975 12.1524
head -1.40979 -3.46315 5.95697
rclavicle 4.4944e-014 2.3059e-014
rhumerus 47.6397 -21.0943 -27.5594
rradius 68.1402
rwrist 12.2864
rhand -42.9801 -1.92373
rfingers 7.12502
rthumb -15.8392 -31.2958
lclavicle 4.4944e-014 2.3059e-014
lhumerus 21.6109 -9.66114 52.1399
lradius 83.4277
lwrist 2.18421
lhand -25.9541 26.2498
lfingers 7.12502
lthumb 0.59005 56.2287
rfemur -9.30826 -7.69194 14.1544
rtibia 53.2835
rfoot -19.0147 -4.28333
rtoes -7.13732
lfemur -18.5394 -4.91294 -11.8683
ltibia 34.5442
lfoot -18.2281 -8.00903
ltoes -24.5585
1852
root -2.28174 17.1739 10.9111 -719.504 -145.308 719.883
lowerback 5.59928 -0.341142 -4.57721
upperback -1.08294 -0.818643 -0.513764
thorax -4.2118 -0.306132 2.11209
lowerneck -19.5919 -5.49349 -14.8944
upperneck -18.4932 -6.32044 12.3599
head -1.69438 -3.46876 6.1095
rclavicle 3.37872e-014 -2.54444e-014
rhumerus 48.985 -22.2713 -27.2406
rradius 66.67
rwrist 11.7098
rhand -42.9317 -2.49159
rfingers 7.12502
rthumb -15.7926 -31.8674
lclavicle 3.37872e-014 -2.54444e-014
lhumerus 24.3685 -8.96909 50.8564
lradius 82.9026
lwrist 2.4645
lhand -26.0126 26.4599
lfingers 7.12502
lthumb 0.533541 56.439
rfemur -10.1976 -7.455 13.6971
rtibia 54.6629
rfoot -17.6756 -4.43863
rtoes -6.86778
lfemur -18.1639 -4.39512 -12.2136
ltibia 34.2545
lfoot -18.481 -8.25172
ltoes -24.6719
1853
root -2.34018 17.1875 10.9476 -719.588 -145.753 719.8
lowerback 5.76158 -0.232015 -4.38852
upperback -1.00212 -0.666012 -0.521521
thorax -4.23163 -0.235811 1.98578
lowerneck -19.5618 -5.52125 -15.2129
upperneck -18.7941 -6.32376 12.5889
head -1.77056 -3.46976 6.24955
rclavicle 1.55301e-014 1.43125e-014
rhumerus 50.5215 -23.5312 -27.1311
rradius 65.1794
rwrist 11.3172
rhand -42.6558 -2.51156
rfingers 7.12502
rthumb -15.5269 -31.9082
lclavicle 1.55301e-014 1.43125e-014
lhumerus 27.0113 -8.20417 49.1471
lradius 82.4447
lwrist 3.0212
lhand -26.2248 26.7577
lfingers 7.12502
lthumb 0.328585 56.7372
rfemur -11.0434 -7.08788 13.3254
rtibia 55.881
rfoot -16.7103 -4.72252
rtoes -6.84456
lfemur -17.7462 -3.83894 -12.538
ltibia 33.9794
lfoot -18.7003 -8.20509
ltoes -24.9385
1854
root -2.39519 17.1968 10.9773 -719.696 -146.21 719.731
lowerback 5.93823 -0.111729 -4.26713
upperback -0.971302 -0.506746 -0.548825
thorax -4.31094 -0.159106 1.87598
lowerneck -19.6488 -5.57707 -15.3365
upperneck -18.7912 -6.36796 12.6748
head -1.74524 -3.48743 6.29263
rclavicle 5.76103e-014 1.27222e-014
rhumerus 52.0697 -24.492 -27.2293
rradius 63.5355
rwrist 11.1155
rhand -42.5771 -2.76908
rfingers 7.12502
rthumb -15.451 -32.1716
lclavicle 5.76103e-014 1.27222e-014
lhumerus 31.5778 -6.06136 51.1971
lradius 80.6135
lwrist 1.13906
lhand -24.6834 26.7332
lfingers 7.12502
lthumb 1.81738 56.7052
rfemur -11.7959 -6.71715 13.033
rtibia 56.9395
rfoot -16.1995 -4.87611
rtoes -7.16853
lfemur -17.2769 -3.43319 -12.819
ltibia 33.7019
lfoot -18.8709 -8.20403
ltoes -25.1384
1855
root -2.44965 17.2078 11.0002 -719.77 -146.59 719.645
lowerback 6.0889 -0.0335624 -4.17827
upperback -1.06862 -0.410156 -0.612629
thorax -4.5047 -0.109377 1.75189
lowerneck -19.3453 -5.55451 -15.2369
upperneck -18.9854 -6.39913 12.6881
head -1.84071 -3.51731 6.29232
rclavicle -2.62582e-014 1.27222e-014
rhumerus 53.5937 -25.1023 -27.409
rradius 61.76
rwrist 10.9638
rhand -42.4224 -3.47304
rfingers 7.12502
rthumb -15.302 -32.887
lclavicle -2.62582e-014 1.27222e-014
lhumerus 32.2484 -6.22942 47.0206
lradius 80.796
lwrist 3.42728
lhand -26.2387 27.1066
lfingers 7.12502
lthumb 0.315161 57.0861
rfemur -12.4809 -6.45534 12.7721
rtibia 57.8007
rfoot -15.9945 -4.97134
rtoes -8.237
lfemur -16.8288 -3.10886 -13.1052
ltibia 33.4085
lfoot -18.962 -8.34447
ltoes -25.142
1856
root -2.5022 17.2254 11.02 -719.864 -146.925 719.572
lowerback 6.18435 0.0337916 -4.15956
upperback -1.07693 -0.323408 -0.60111
thorax -4.57272 -0.0651955 1.74526
lowerneck -19.4246 -5.60547 -15.1308
upperneck -18.9497 -6.49542 12.5757
head -1.8175 -3.57173 6.22799
rclavicle 3.99744e-014 -1.98785e-015
rhumerus 55.1643 -25.857 -27.6306
rradius 60.1127
rwrist 10.884
rhand -42.2455 -4.06921
rfingers 7.12502
rthumb -15.1317 -33.496
lclavicle 3.99744e-014 -1.98785e-015
lhumerus 34.906 -5.23243 45.7898
lradius 79.589
lwrist 3.92652
lhand -26.085 27.0354
lfingers 7.12502
lthumb 0.463626 57.0146
rfemur -13.0982 -6.14812 12.578
rtibia 58.4488
rfoot -15.9337 -4.91505
rtoes -7.52003
lfemur -16.3729 -2.96481 -13.3823
ltibia 33.106
lfoot -19.0124 -8.23731
ltoes -25.109
1857
root -2.55399 17.2449 11.0361 -719.976 -147.11 719.501
lowerback 6.27792 0.0325475 -4.16476
upperback -1.05552 -0.325315 -0.530697
thorax -4.60278 -0.0642219 1.82185
lowerneck -19.6274 -5.42183 -14.5183
upperneck -18.9768 -6.453 11.6116
head -1.88403 -3.58196 5.81828
rclavicle -7.62215e-015 -1.94809e-014
rhumerus 56.8387 -26.5637 -28.0537
rradius 58.636
rwrist 10.7892
rhand -42.1355 -4.12898
rfingers 7.12502
rthumb -15.0256 -33.5638
lclavicle -7.62215e-015 -1.94809e-014
lhumerus 37.4184 -4.07747 44.6676
lradius 78.3284
lwrist 4.31903
lhand -25.5909 27.3029
lfingers 7.12502
lthumb 0.940899 57.2806
rfemur -13.605 -5.95663 12.4169
rtibia 58.8971
rfoot -15.9693 -4.62238
rtoes -5.25787
lfemur -15.9207 -2.99345 -13.6628
ltibia 32.8062
lfoot -19.0425 -7.9727
ltoes -25.0527
1858
root -2.60407 17.2632 11.0502 -720.136 -147.196 719.567
lowerback 6.39743 -0.0130969 -3.99534
upperback -1.0867 -0.376571 -0.495974
thorax -4.70008 -0.0907446 1.76869
lowerneck -19.7566 -5.48774 -14.6409
upperneck -18.8187 -6.48976 11.7045
head -1.80595 -3.58979 5.85621
rclavicle 5.44049e-014 -6.36111e-015
rhumerus 58.5782 -27.1105 -28.8479
rradius 57.1805
rwrist 10.905
rhand -42.2143 -4.04019
rfingers 7.12502
rthumb -15.1016 -33.4693
lclavicle 5.44049e-014 -6.36111e-015
lhumerus 39.855 -2.95909 43.4666
lradius 76.9781
lwrist 4.79629
lhand -25.223 27.4754
lfingers 7.12502
lthumb 1.29614 57.4512
rfemur -14.0315 -5.84037 12.4245
rtibia 59.1844
rfoot -16.0746 -4.31794
rtoes -3.73308
lfemur -15.5281 -3.17538 -13.8088
ltibia 32.506
lfoot -19.0242 -7.66769
ltoes -24.9303
1859
root -2.65069 17.278 11.0611 -720.311 -147.217 719.623
lowerback 6.58367 -0.0904909 -3.91295
upperback -1.15368 -0.479658 -0.437025
thorax -4.8693 -0.138409 1.79576
lowerneck -19.9053 -5.5178 -14.9
upperneck -18.4648 -6.40615 11.9818
head -1.66352 -3.52074 5.97626
rclavicle -3.15846e-014 -1.59028e-014
rhumerus 60.4416 -27.4873 -30.0803
rradius 55.9213
rwrist 11.5671
rhand -42.3105 -4.25957
rfingers 7.12502
rthumb -15.1943 -33.6817
lclavicle -3.15846e-014 -1.59028e-014
lhumerus 42.1824 -1.8071 42.2771
lradius 75.4789
lwrist 5.24132
lhand -25.2398 27.5037
lfingers 7.12502
lthumb 1.27996 57.4796
rfemur -14.3522 -5.7276 12.4879
rtibia 59.3556
rfoot -16.3249 -4.25574
rtoes -4.15966
lfemur -15.1488 -3.54077 -13.9578
ltibia 32.2369
lfoot -19.0873 -7.30396
ltoes -25.0929
1860
root -2.69433 17.2941 11.0669 -720.569 -147.148 719.678
lowerback 6.81638 -0.203675 -3.93954
upperback -1.16809 -0.63758 -0.329896
thorax -5.00542 -0.210604 1.94107
lowerneck -20.0454 -5.4895 -15.0784
upperneck -18.2099 -6.2805 12.2026
head -1.56379 -3.43993 6.07319
rclavicle 1.23555e-013 2.10712e-014
rhumerus 62.1478 -27.8493 -31.189
rradius 54.8685
rwrist 12.2228
rhand -42.2985 -4.8003
rfingers 7.12502
rthumb -15.1827 -34.2233
lclavicle 1.23555e-013 2.10712e-014
lhumerus 44.4535 -0.578599 41.2045
lradius 73.8386
lwrist 5.32391
lhand -25.2969 27.4927
lfingers 7.12502
lthumb 1.22481 57.4689
rfemur -14.566 -5.6692 12.5827
rtibia 59.4313
rfoot -16.6806 -4.34276
rtoes -5.56017
lfemur -14.6952 -3.9608 -14.0995
ltibia 32.0021
lfoot -19.1765 -6.98699
ltoes -24.5678
1861
root -2.7382 17.3061 11.072 -720.834 -147.036 719.796
lowerback 6.94054 -0.316491 -3.88299
upperback -1.10435 -0.780224 -0.217295
thorax -4.9991 -0.281397 2.04306
lowerneck -20.4286 -5.50786 -15.1336
upperneck -17.9545 -6.24836 12.2206
head -1.43863 -3.41439 6.07329
rclavicle 9.38062e-014 -3.57812e-015
rhumerus 63.7594 -28.3896 -31.8397
rradius 53.5142
rwrist 12.5417
rhand -42.3861 -5.05443
rfingers 7.12502
rthumb -15.2671 -34.471
lclavicle 9.38062e-014 -3.57812e-015
lhumerus 46.7726 0.694093 40.1208
lradius 72.1833
lwrist 5.03568
lhand -25.5573 28.0638
lfingers 7.12502
lthumb 0.973298 58.0414
rfemur -14.7709 -5.78726 12.7225
rtibia 59.4213
rfoot -16.9656 -4.21021
rtoes -6.07396
lfemur -14.2981 -4.32114 -14.1904
ltibia 31.8105
lfoot -19.2886 -6.64624
ltoes -24.6774
1862
root -2.78233 17.3165 11.0731 -720.961 -147.01 719.838
lowerback 6.98078 -0.392409 -3.96534
upperback -1.14436 -0.882812 -0.0780849
thorax -5.05412 -0.325175 2.24634
lowerneck -20.6744 -5.53505 -15.176
upperneck -17.6682 -6.23851 12.1551
head -1.3245 -3.39677 6.04427
rclavicle -7.38283e-014 -9.93923e-015
rhumerus 65.487 -28.7924 -32.5845
rradius 52.1064
rwrist 12.9636
rhand -42.2873 -5.15891
rfingers 7.12502
rthumb -15.1719 -34.5827
lclavicle -7.38283e-014 -9.93923e-015
lhumerus 48.9481 1.96253 39.1898
lradius 70.5693
lwrist 5.20459
lhand -25.0596 28.7857
lfingers 7.12502
lthumb 1.45402 58.7605
rfemur -15.0191 -5.93748 12.7956
rtibia 59.3205
rfoot -17.066 -3.75257
rtoes -6.07132
lfemur -13.9922 -4.55035 -14.3511
ltibia 31.6584
lfoot -19.5117 -6.34452
ltoes -25.0263
